<?xml version="1.0" standalone="no"?>
<!DOCTYPE svg PUBLIC "-//W3C//DTD SVG 20010904//EN"
 "http://www.w3.org/TR/2001/REC-SVG-20010904/DTD/svg10.dtd">
<svg version="1.0" xmlns="http://www.w3.org/2000/svg"
 width="2300.000000pt" height="2300.000000pt" viewBox="0 0 2300.000000 2300.000000"
 preserveAspectRatio="xMidYMid meet">
<metadata>
Created by potrace 1.14, written by Peter Selinger 2001-2017
</metadata>
<g transform="translate(0.000000,2300.000000) scale(0.100000,-0.100000)"
fill="#000000" stroke="none">
<path d="M11669 17725 c-1 -8 -3 -19 -4 -25 -1 -5 -3 -19 -4 -30 0 -11 -7 -20
-15 -20 -18 0 -27 -39 -31 -143 -3 -88 -11 -151 -25 -207 -20 -80 -30 -211
-35 -439 -2 -90 -6 -165 -8 -167 -2 -3 1 -33 8 -67 8 -34 16 -82 19 -107 9
-73 16 -108 52 -252 33 -132 35 -168 10 -168 -7 0 -21 -7 -32 -15 -18 -14 -17
-16 25 -53 41 -37 44 -42 38 -77 -9 -53 -38 -81 -147 -135 -52 -26 -130 -66
-172 -88 -59 -32 -85 -40 -110 -36 -50 7 -198 23 -268 29 -276 22 -312 24
-555 30 -742 16 -724 16 -830 31 -74 10 -90 13 -185 35 -52 11 -117 25 -145
30 -27 5 -97 22 -154 39 -58 16 -106 28 -108 27 -1 -2 13 -20 32 -40 19 -20
35 -43 35 -51 0 -7 30 -36 68 -64 76 -58 102 -80 188 -162 61 -58 274 -223
349 -271 106 -68 125 -79 134 -79 5 0 16 -6 23 -12 13 -13 163 -89 183 -94 6
-1 24 -8 40 -15 17 -7 32 -13 35 -14 28 -7 50 -18 50 -24 0 -4 -13 -20 -30
-36 -36 -34 -37 -41 -7 -48 91 -23 155 -53 192 -91 45 -47 117 -96 140 -96 21
0 135 -47 154 -64 9 -7 25 -12 36 -10 40 8 90 12 96 8 4 -2 3 -21 -1 -41 -5
-21 -11 -57 -14 -80 -3 -24 -9 -62 -12 -85 -10 -71 -12 -90 -18 -163 -4 -38
-9 -97 -12 -130 -6 -69 -6 -500 0 -530 2 -11 7 -54 10 -95 13 -147 58 -256
141 -346 51 -54 58 -53 102 25 61 107 65 113 77 101 12 -12 16 -209 5 -279 -3
-25 -9 -68 -13 -96 -22 -188 -58 -256 -166 -315 -30 -16 -48 -30 -40 -30 18 0
87 37 121 65 54 45 102 134 134 248 15 56 29 74 32 39 3 -35 58 -179 89 -232
41 -70 111 -141 183 -185 31 -19 59 -35 63 -35 4 -1 23 -7 43 -16 49 -20 44
-1 -8 29 -24 14 -56 45 -72 69 -15 24 -36 54 -45 68 -20 30 -90 201 -90 221 0
7 21 -8 48 -35 44 -45 189 -148 229 -163 15 -6 16 -4 5 9 -11 14 -10 17 7 23
11 3 29 2 39 -4 24 -13 88 3 96 25 3 8 10 13 15 9 5 -3 12 -1 16 5 4 6 10 8
15 5 4 -3 24 2 44 10 l36 15 0 -31 c0 -24 -12 -42 -58 -87 -59 -57 -98 -122
-88 -147 2 -7 -2 -19 -9 -25 -8 -7 -12 -17 -8 -22 3 -6 7 -26 8 -45 1 -22 -1
-29 -6 -21 -17 26 -9 -2 10 -36 15 -26 17 -36 8 -45 -9 -9 -7 -10 8 -5 11 4
17 4 13 0 -3 -4 0 -29 8 -54 8 -26 16 -51 18 -57 1 -5 7 -20 14 -32 13 -24 16
-53 5 -54 -8 -1 -15 -2 -73 -15 -19 -4 -70 -8 -112 -8 -74 -1 -76 -2 -50 -16
19 -10 56 -15 125 -15 92 0 119 -7 79 -20 -11 -3 -24 -16 -29 -28 -15 -33 -64
-88 -73 -82 -4 3 -36 -14 -69 -38 -34 -23 -74 -49 -89 -57 -120 -68 -290 -244
-366 -379 -75 -131 -114 -331 -112 -564 0 -103 -3 -162 -9 -164 -6 -2 -20 5
-30 14 -11 10 -45 36 -75 58 -30 22 -57 42 -60 45 -3 3 -12 10 -21 15 -60 36
-361 244 -393 271 -21 19 -42 31 -47 28 -4 -2 -23 9 -42 26 -19 16 -39 30 -45
30 -5 0 -36 17 -68 39 -33 21 -97 62 -144 92 -47 29 -87 57 -88 62 -2 4 -22
18 -44 30 -22 12 -53 29 -70 39 -16 9 -47 32 -68 52 -22 20 -46 36 -55 36 -8
0 -23 9 -32 20 -10 11 -23 20 -30 20 -7 0 -13 5 -13 10 0 6 -12 16 -27 23 -16
6 -39 22 -53 35 -14 12 -35 25 -47 28 -13 4 -23 10 -23 15 0 5 -5 9 -10 9 -9
0 -116 69 -145 93 -5 4 -22 16 -36 25 -15 9 -61 40 -103 69 -42 29 -93 60
-114 70 -20 9 -81 43 -135 75 -169 101 -292 148 -367 142 -45 -3 -204 -34
-249 -49 -65 -21 -241 -145 -308 -218 -55 -59 -85 -120 -148 -302 -52 -148
-88 -247 -108 -295 -6 -14 -11 -27 -12 -30 -9 -39 -111 -313 -139 -375 -7 -16
-28 -70 -46 -120 -18 -49 -36 -99 -41 -110 -4 -11 -20 -51 -35 -90 -33 -86
-37 -91 -82 -106 -33 -11 -80 -39 -161 -97 -73 -51 -172 -140 -311 -276 -85
-83 -184 -176 -220 -206 -36 -30 -72 -61 -81 -70 -8 -8 -36 -31 -62 -50 -26
-19 -49 -42 -52 -50 -3 -8 -20 -25 -37 -37 -18 -13 -47 -35 -64 -50 -18 -16
-82 -66 -144 -113 -62 -47 -118 -89 -124 -95 -6 -5 -29 -23 -51 -40 -22 -16
-44 -33 -50 -37 -155 -125 -822 -610 -1035 -753 -41 -27 -84 -58 -94 -67 -11
-10 -23 -18 -27 -18 -4 0 -14 -6 -21 -13 -11 -10 -606 -405 -728 -482 -98 -62
-252 -156 -305 -185 -77 -42 -108 -62 -116 -74 -4 -5 -19 -2 -35 7 -91 47
-142 57 -249 51 -49 -3 -112 -5 -140 -3 -55 3 -111 2 -225 -3 -41 -2 -108 3
-150 10 -82 15 -96 17 -155 26 -22 4 -51 11 -65 15 -14 5 -52 14 -85 21 -32 7
-66 16 -75 20 -8 4 -42 15 -74 25 -32 9 -69 27 -81 38 -35 35 -128 95 -158
102 -30 8 -46 27 -108 121 -83 128 -191 211 -295 229 -83 14 -113 15 -121 2
-17 -28 -74 -34 -133 -14 -79 27 -186 19 -266 -19 -46 -23 -66 -40 -91 -79
-18 -27 -37 -55 -42 -61 -16 -20 -28 -49 -37 -89 -21 -105 -22 -117 -6 -148 7
-16 11 -35 8 -42 -2 -7 7 -29 21 -50 13 -20 22 -39 20 -42 -6 -5 38 -100 71
-153 12 -19 22 -43 22 -52 0 -10 3 -18 8 -18 4 0 12 -8 17 -19 38 -71 59 -107
66 -111 4 -3 10 -18 13 -34 3 -16 22 -47 43 -69 193 -201 338 -320 533 -437
120 -72 319 -176 400 -211 30 -12 57 -26 60 -30 3 -3 75 -41 160 -84 242 -123
331 -180 443 -286 23 -21 43 -36 46 -33 3 3 -26 34 -64 69 -39 35 -67 66 -64
70 11 10 165 -120 280 -237 86 -87 111 -106 130 -103 13 2 46 6 74 10 27 3 61
12 74 18 36 17 89 124 111 227 7 30 16 64 21 75 4 11 17 45 28 76 11 31 31 73
45 94 14 21 26 45 26 54 0 10 36 75 80 145 44 70 80 134 80 142 0 24 17 16 24
-11 4 -14 17 -49 30 -78 13 -28 31 -69 40 -90 9 -22 28 -53 42 -70 83 -100
271 -277 294 -277 6 0 10 -4 10 -10 0 -5 4 -10 9 -10 6 0 39 -21 74 -47 35
-27 72 -54 83 -61 54 -35 111 -69 129 -77 18 -7 19 -8 2 -12 -10 -3 -26 -1
-35 3 -9 4 -19 7 -22 6 -6 0 -142 -11 -235 -17 -33 -3 -76 -7 -95 -10 -19 -2
-55 -7 -80 -10 -25 -2 -65 -7 -90 -10 -25 -3 -61 -8 -80 -10 -19 -2 -53 -6
-75 -9 -22 -3 -62 -7 -90 -11 -27 -3 -63 -7 -80 -9 -16 -3 -61 -7 -100 -10
-97 -9 -174 -17 -210 -21 -16 -2 -61 -7 -100 -10 -38 -3 -86 -8 -105 -11 -19
-2 -53 -7 -75 -9 -22 -3 -56 -7 -76 -10 -20 -3 -59 -8 -85 -11 -46 -4 -93 -10
-154 -20 -14 -2 -45 -6 -70 -9 -25 -3 -61 -7 -80 -10 -19 -2 -55 -7 -80 -9
-25 -3 -70 -8 -100 -11 -72 -9 -112 -13 -185 -20 -55 -5 -87 -9 -185 -20 -19
-2 -60 -7 -90 -10 -30 -3 -66 -8 -80 -10 -22 -3 -97 -14 -300 -41 -25 -3 -56
-7 -70 -9 -22 -2 -63 -8 -165 -21 -16 -2 -46 -6 -65 -8 -19 -3 -57 -8 -85 -11
-27 -3 -66 -8 -85 -10 -19 -3 -56 -7 -82 -10 -120 -13 -144 -16 -158 -20 -8
-2 -40 -7 -70 -10 -53 -6 -118 -14 -170 -20 -122 -15 -148 -18 -165 -22 -11
-3 -29 -6 -40 -7 -48 -5 -74 -22 -132 -84 -35 -36 -63 -70 -63 -77 0 -7 -7
-26 -15 -42 -42 -84 -11 -224 67 -303 60 -63 134 -84 273 -79 33 2 95 3 138 3
42 1 77 5 77 9 0 5 5 5 10 2 6 -3 10 -1 10 5 0 7 6 8 19 1 10 -6 20 -8 23 -6
8 9 112 19 196 19 45 1 82 4 82 7 0 3 26 5 58 4 31 -1 61 0 67 4 12 6 64 12
128 14 26 1 47 5 47 8 0 4 15 7 32 7 18 0 46 3 62 6 16 4 34 8 40 9 6 1 14 7
18 12 5 6 8 5 8 -3 0 -7 4 -11 9 -8 8 6 56 15 96 19 11 1 23 5 26 10 6 8 126
16 309 22 58 2 116 5 130 8 14 3 42 8 64 12 21 4 48 8 59 11 12 2 38 6 59 9
81 12 96 15 183 30 50 9 99 17 110 19 95 15 115 19 115 27 0 4 8 8 18 8 19 -1
39 2 247 25 77 9 160 19 185 21 25 3 79 10 120 15 41 5 100 12 130 15 30 2 64
6 76 9 11 2 53 7 93 11 40 3 82 8 94 11 12 2 45 6 72 9 104 11 151 16 175 20
14 3 48 7 75 10 28 3 66 7 85 9 19 3 76 10 125 16 50 6 101 13 115 15 14 2 50
7 80 10 65 8 71 9 175 24 82 11 144 19 205 26 61 6 134 16 160 20 14 3 63 10
110 15 113 14 146 19 230 34 19 3 51 8 70 10 58 7 104 18 116 28 7 5 85 -29
211 -93 115 -57 215 -102 235 -103 19 -2 68 -14 109 -28 41 -15 88 -29 104
-33 135 -31 344 -46 435 -30 25 5 63 9 85 10 50 1 87 14 80 26 -3 5 0 6 8 3 9
-3 22 4 31 18 9 12 16 18 16 13 0 -5 7 0 16 11 8 10 12 13 8 5 -4 -9 -3 -12 4
-7 6 4 9 13 5 21 -3 9 1 15 10 15 9 0 19 5 23 12 4 7 3 8 -4 4 -8 -5 -10 -2
-6 8 3 9 10 13 15 10 5 -3 9 2 9 10 0 9 5 16 10 16 6 0 9 3 9 7 -4 22 2 33 13
27 8 -5 9 -2 5 9 -3 10 -2 17 4 17 6 0 7 5 4 10 -3 6 -1 10 5 10 6 0 8 5 5 10
-3 6 -2 10 3 10 8 0 46 108 57 165 3 17 8 44 12 60 4 17 7 54 7 83 l0 52 46 1
c25 0 54 2 65 5 11 2 43 6 70 8 51 5 131 14 355 42 30 4 66 8 80 9 14 1 63 8
110 15 47 7 100 14 119 16 19 2 49 6 68 9 19 3 53 7 76 10 23 3 58 7 77 10 19
2 60 7 90 10 30 3 71 8 90 11 19 3 51 7 70 9 74 8 136 15 170 20 41 5 234 26
369 41 19 2 49 6 67 9 18 2 57 7 86 10 29 3 64 7 78 10 14 3 45 7 70 10 25 3
59 8 75 10 28 4 62 8 168 20 23 2 83 9 132 16 50 6 108 12 130 14 64 6 156 15
210 21 28 3 73 7 100 9 28 2 52 5 55 6 3 1 7 1 10 1 3 0 39 3 80 8 96 11 166
19 233 25 28 3 68 7 87 10 19 2 62 7 95 10 33 3 77 8 98 11 21 2 63 7 95 10
31 3 75 7 97 9 22 2 63 6 90 9 28 3 93 10 145 16 125 15 163 18 350 36 107 9
158 15 205 20 28 4 68 8 90 10 55 4 162 13 210 18 22 3 76 7 120 11 44 3 98 8
120 10 22 2 72 6 110 10 39 3 93 7 120 10 28 3 82 7 120 10 39 3 90 8 115 10
25 2 77 7 115 10 39 3 86 8 105 10 19 2 64 7 100 10 36 3 85 8 110 11 50 6
106 11 190 18 30 3 71 7 90 10 36 6 122 15 200 21 25 3 68 7 95 10 50 5 171
16 212 19 12 1 25 5 28 8 4 4 13 4 21 1 7 -2 37 0 66 7 29 6 78 14 108 16 30
3 60 7 66 9 12 4 53 -37 67 -65 30 -59 80 -120 100 -120 6 0 41 10 77 22 85
30 142 83 140 130 -3 50 -1 54 15 31 12 -17 23 -21 57 -18 56 3 72 11 88 41 7
13 20 24 29 25 126 4 191 15 259 45 86 38 101 48 104 68 3 23 22 28 193 51 28
3 66 8 85 11 19 3 67 7 105 9 39 3 80 7 92 10 32 8 207 20 423 30 374 18 586
26 795 30 88 2 166 4 172 4 9 1 12 22 11 71 -1 38 2 73 5 77 4 3 8 -11 8 -33
1 -21 2 -57 3 -79 l1 -40 118 0 c117 0 119 0 143 28 13 15 28 45 34 67 14 53
30 52 19 -1 -11 -47 -24 -75 -47 -102 -15 -16 -14 -21 3 -52 26 -50 160 -177
326 -309 95 -77 288 -193 432 -261 129 -60 187 -80 187 -62 0 17 61 19 79 4 9
-7 28 -19 44 -27 34 -17 29 -36 -9 -33 -33 3 284 -113 364 -132 30 -8 60 -11
68 -8 8 3 14 0 14 -6 0 -8 6 -9 18 -2 11 6 24 6 34 0 11 -6 19 -6 23 1 8 12
55 13 55 1 0 -13 39 -21 46 -9 3 5 20 6 37 2 18 -4 39 -8 47 -9 8 -1 22 -5 30
-8 37 -15 90 -25 90 -17 0 4 -12 11 -26 14 -21 6 -24 9 -14 21 9 11 17 12 30
5 11 -6 21 -6 24 -2 3 5 -63 26 -147 47 -84 20 -170 43 -192 51 -22 7 -51 15
-65 18 -69 13 -333 103 -420 143 -30 14 -76 33 -103 43 -26 9 -50 20 -54 23
-3 4 -15 7 -27 7 -13 0 -17 3 -10 10 6 6 23 6 48 -1 21 -6 46 -12 55 -14 34
-8 179 -47 261 -71 108 -32 70 -22 395 -104 154 -39 312 -78 350 -86 39 -9 79
-17 90 -20 11 -2 34 -7 50 -10 17 -2 46 -9 65 -14 20 -5 51 -12 70 -14 19 -3
44 -7 55 -10 11 -2 45 -7 75 -10 30 -4 83 -10 118 -15 35 -4 75 -6 88 -5 13 1
24 0 24 -4 0 -4 37 -8 83 -8 45 -1 130 -3 188 -4 79 -2 119 2 158 15 42 14 55
15 67 4 10 -8 18 -9 22 -3 4 6 15 13 25 17 10 4 15 11 12 17 -4 6 6 10 24 10
16 0 45 9 64 20 19 12 50 22 68 24 48 5 90 24 106 46 11 15 22 19 48 15 19 -2
35 0 35 5 0 6 9 10 19 10 11 0 23 5 26 11 4 6 19 7 36 4 22 -5 29 -3 27 7 -2
8 7 13 25 13 15 -1 27 3 27 7 0 4 6 8 14 8 8 0 22 7 31 16 8 9 22 13 31 10 8
-3 17 1 21 9 4 12 14 14 39 9 24 -4 34 -2 34 6 0 8 9 11 25 8 19 -4 25 -1 23
11 -2 11 3 15 20 13 14 -2 22 2 22 12 0 8 14 24 30 36 17 12 30 19 30 15 0
-10 44 17 53 32 6 10 18 12 38 8 19 -4 29 -3 29 5 0 7 8 10 19 7 12 -3 18 1
17 12 -1 16 3 18 50 20 16 1 28 8 31 20 3 12 12 18 22 16 10 -2 24 1 31 5 11
7 11 11 1 24 -12 14 2 16 150 17 168 1 177 2 289 13 128 13 208 34 221 59 10
18 6 18 -108 16 -65 -1 -137 -6 -159 -10 -54 -10 -112 -17 -199 -23 -38 -3
-100 -8 -137 -12 -47 -4 -68 -3 -68 5 0 6 9 11 19 11 11 0 23 5 26 11 4 6 19
7 35 4 16 -3 31 -2 35 4 3 6 16 11 28 11 17 0 19 2 7 10 -20 12 -8 22 32 25
17 1 34 7 36 14 2 6 7 9 11 7 4 -3 26 2 49 9 23 8 48 12 56 9 8 -3 17 0 21 5
3 6 11 9 16 5 6 -3 20 4 31 16 16 17 23 19 28 9 7 -10 15 -8 37 6 15 11 36 18
46 16 18 -2 47 20 47 37 0 12 29 24 41 16 5 -3 9 -1 9 4 0 5 13 15 28 21 25
11 29 17 28 54 0 23 2 53 4 67 5 25 3 26 -45 29 -48 2 -25 18 28 19 53 0 95 7
105 17 13 13 -92 57 -143 60 -5 0 -11 16 -11 35 -2 62 -4 66 -29 80 -46 24
-26 30 83 23 155 -9 281 -7 267 5 -12 9 -62 26 -125 42 -25 6 -55 16 -67 22
-20 10 -20 12 -7 44 21 51 18 62 -28 85 l-42 22 37 16 c28 12 37 22 38 41 0
14 2 38 4 53 6 44 -10 72 -49 91 -45 21 -54 36 -22 36 15 0 26 6 26 14 0 13
-63 77 -109 109 -14 9 -22 19 -18 23 7 7 148 -57 280 -128 48 -27 93 -48 99
-48 18 0 -40 57 -112 109 -97 71 -167 106 -323 161 -182 63 -177 60 -177 72 0
6 13 8 33 4 104 -19 104 -19 127 14 12 16 26 28 31 25 5 -4 9 5 9 19 0 14 5
26 10 26 6 0 10 5 10 10 0 6 -6 10 -13 10 -7 0 -22 7 -33 15 -27 21 -2 36 40
23 112 -34 87 -12 -31 27 -83 28 -101 45 -42 40 24 -2 33 2 36 16 4 13 11 18
22 15 9 -3 34 -8 56 -12 22 -3 45 -10 52 -16 7 -5 20 -8 30 -6 24 4 -140 88
-230 118 -72 23 -98 27 -247 36 -107 6 -149 14 -153 29 -1 6 8 11 21 13 24 4
30 18 10 25 -7 2 2 7 19 11 35 8 55 26 29 26 -9 0 -16 6 -16 14 0 22 -43 26
-200 20 -130 -5 -281 -5 -350 -1 -14 0 -50 -3 -80 -7 -30 -4 -61 -8 -67 -9 -7
0 -13 -3 -13 -7 0 -3 -33 -7 -72 -7 -40 0 -122 -3 -182 -6 -107 -5 -125 1 -56
21 19 6 68 22 109 36 40 15 87 29 103 31 17 3 40 11 52 17 11 6 31 13 44 14
13 2 29 7 36 13 9 7 16 7 24 -1 9 -9 12 -8 12 6 0 9 4 15 9 12 11 -7 41 3 41
13 0 5 -21 4 -47 -1 -27 -5 -59 -10 -73 -12 -14 -2 -27 -4 -30 -5 -3 -2 -18
-5 -35 -7 -16 -3 -37 -7 -45 -11 -19 -8 -19 -8 -52 -17 -16 -5 -28 -13 -28
-18 0 -6 -6 -8 -14 -5 -7 3 -26 -3 -42 -12 -30 -18 -72 -32 -114 -36 -14 -2
-35 -6 -48 -9 -47 -11 -15 16 52 44 118 50 272 97 376 114 14 2 36 7 50 10 14
3 41 8 60 10 19 3 51 7 70 11 19 3 51 7 70 10 19 3 49 7 65 10 17 2 47 5 68 7
47 3 57 14 14 14 -34 0 -166 12 -207 18 -14 3 -41 7 -60 10 -101 17 -158 21
-190 14 -53 -11 -100 -18 -150 -23 -175 -18 -250 -26 -280 -30 -14 -2 -54 -7
-90 -10 -36 -3 -72 -8 -80 -10 -8 -2 -35 -7 -60 -10 -25 -3 -70 -10 -101 -15
-30 -4 -82 -5 -115 -1 -32 3 -79 4 -104 0 -27 -4 -59 -1 -81 7 -20 7 -41 9
-45 4 -8 -7 -69 -22 -144 -36 -14 -3 -58 -20 -99 -39 -78 -37 -91 -41 -91 -25
0 6 4 10 10 10 5 0 32 13 59 30 28 16 74 39 103 51 29 11 62 25 73 30 30 12
173 52 235 64 8 2 34 8 58 14 23 7 47 9 52 6 6 -4 36 -1 67 5 39 9 52 15 42
21 -8 5 -9 9 -4 10 6 0 17 2 25 4 109 29 144 36 195 39 92 4 89 4 75 21 -7 8
-15 13 -19 11 -3 -2 -30 -7 -60 -10 -30 -4 -64 -9 -75 -11 -12 -3 -33 -7 -49
-9 -15 -3 -54 -10 -87 -16 -33 -6 -71 -13 -85 -15 -60 -11 -142 -25 -160 -29
-27 -5 -136 -36 -155 -43 -8 -4 -17 -7 -20 -8 -3 -1 -13 -5 -22 -8 -41 -16
-54 -20 -63 -22 -27 -7 -183 -58 -200 -66 -11 -5 -49 -18 -85 -29 -36 -10
-132 -45 -215 -75 -249 -93 -278 -103 -324 -110 -24 -3 -51 -10 -60 -15 -18
-9 -150 -61 -166 -65 -14 -3 -161 -71 -216 -100 -58 -31 -79 -33 -54 -5 10 11
20 18 24 16 3 -2 12 2 19 10 11 12 10 14 -6 14 -10 0 -23 -5 -30 -12 -6 -6
-15 -8 -19 -4 -11 10 101 105 178 151 9 6 61 37 115 70 55 33 110 66 124 73
14 7 50 32 80 56 91 69 181 121 360 207 58 27 113 54 123 59 9 6 68 31 130 55
61 25 121 50 132 55 11 5 49 18 85 30 36 11 72 24 80 27 8 3 26 8 39 10 14 2
33 9 43 14 10 5 23 7 28 4 5 -3 11 -1 14 4 3 5 26 12 51 16 53 7 108 29 99 37
-3 4 -11 5 -17 2 -7 -2 -25 -6 -42 -8 -16 -3 -41 -7 -55 -10 -14 -3 -34 -8
-45 -10 -101 -23 -185 -53 -404 -145 -41 -17 -79 -31 -86 -31 -17 0 -326 -157
-349 -179 -12 -10 -97 -58 -190 -106 -93 -48 -183 -95 -200 -105 -80 -47 -184
-98 -189 -93 -5 5 19 51 33 63 4 3 31 39 61 80 31 41 63 81 73 89 9 8 31 33
48 55 l32 41 -48 -45 c-53 -50 -192 -229 -209 -269 -16 -37 -49 -65 -162 -138
-55 -36 -118 -77 -140 -92 -22 -15 -110 -70 -195 -121 -85 -51 -179 -111 -209
-133 -64 -47 -221 -200 -221 -214 0 -6 -14 -26 -30 -44 -73 -82 -165 -238
-184 -313 -10 -39 -18 -51 -32 -51 -20 0 -20 7 -10 80 2 17 7 57 10 90 6 52
14 108 22 140 1 6 16 53 33 106 33 103 50 138 130 268 51 85 60 122 15 66 -66
-83 -172 -335 -214 -509 -11 -44 -24 -82 -29 -85 -17 -11 -34 -118 -20 -127 5
-3 9 -14 9 -24 0 -18 -15 -18 -392 -14 -216 3 -429 7 -473 9 -112 6 -209 6
-285 0 -36 -2 -117 -7 -180 -10 -217 -11 -354 -24 -455 -41 -22 -4 -47 -8 -55
-9 -27 -3 -125 -17 -141 -20 -9 -2 -60 -9 -114 -15 -79 -9 -99 -9 -106 1 -4 7
-5 17 -2 22 3 4 5 41 4 80 0 61 -7 97 -35 192 -4 13 -10 28 -66 170 -58 144
-130 360 -130 386 0 10 7 19 15 19 27 0 38 39 30 109 -4 36 -9 91 -10 121 -3
69 -15 161 -27 209 -1 8 7 17 18 20 31 9 74 65 74 96 0 15 -9 43 -21 61 -20
32 -20 36 -5 81 50 153 55 263 15 381 -16 48 -32 94 -36 102 -3 8 -7 20 -7 25
-1 6 -9 27 -19 49 -9 21 -17 41 -17 45 0 3 -19 56 -43 116 -24 61 -53 144 -66
185 -13 41 -27 84 -32 95 -5 11 -12 29 -14 40 -8 31 -41 148 -47 165 -21 57
-70 266 -93 390 -9 52 -21 109 -25 125 -5 17 -11 41 -14 55 -3 14 -18 79 -34
145 -16 66 -33 138 -37 160 -5 22 -10 47 -12 55 -2 8 -5 26 -8 40 -2 14 -6 41
-10 60 -7 38 -11 65 -20 124 -3 21 -8 42 -11 47 -3 5 -7 33 -10 61 -2 29 -6
64 -9 78 -2 13 -7 40 -10 60 -5 29 -18 94 -49 235 -7 30 -17 159 -21 250 -2
44 -10 109 -19 145 -8 36 -18 81 -21 100 -21 118 -95 333 -162 465 -66 130
-166 236 -243 259 -79 23 -253 8 -371 -33 l-54 -18 -41 36 c-45 40 -67 56
-104 74 -18 9 -31 31 -47 75 -21 63 -22 100 -2 157 15 42 103 215 109 215 3 0
18 -31 35 -67 27 -61 120 -171 133 -158 2 2 -16 27 -41 56 -48 55 -66 102 -71
186 -2 43 4 64 34 124 20 39 39 70 44 68 4 -2 14 7 22 21 15 25 15 25 9 -10
-11 -72 -15 -95 -20 -115 -3 -11 4 -2 15 20 11 22 20 45 20 51 0 25 40 136 69
190 27 54 48 101 49 114 0 3 5 18 11 33 15 39 41 166 41 202 1 26 2 28 11 11
7 -11 9 -53 5 -115 -7 -115 -11 -136 -40 -223 -24 -73 -20 -86 13 -40 63 88
83 210 67 402 -4 47 -9 119 -12 160 -3 41 -10 93 -16 115 -6 22 -11 49 -13 60
-4 29 -42 129 -78 204 -36 75 -200 324 -262 396 -76 88 -217 225 -315 305
-135 110 -153 132 -345 415 -49 72 -138 198 -199 280 -61 83 -119 162 -128
176 -9 14 -23 32 -30 40 -21 22 -228 307 -253 347 -56 92 -89 152 -123 223
-76 160 -149 324 -178 402 -27 74 -43 95 -45 62z m1762 -2502 c13 -21 42 -74
64 -118 22 -44 42 -82 45 -85 7 -7 58 -157 66 -195 3 -16 8 -47 10 -68 1 -20
5 -41 9 -46 3 -5 2 -12 -3 -14 -4 -3 -43 88 -86 201 -44 114 -94 240 -112 280
-37 81 -38 82 -25 82 4 0 19 -17 32 -37z m-2694 -825 c-1 -93 3 -160 18 -259
2 -19 9 -70 15 -115 6 -44 13 -91 15 -105 11 -56 21 -278 16 -369 -1 -26 -59
-100 -78 -100 -6 0 -14 21 -18 46 -3 25 -8 54 -10 64 -15 80 -31 308 -29 420
1 89 12 219 19 230 2 3 6 34 10 70 4 36 9 81 12 100 3 19 7 51 8 70 2 19 4 38
4 43 1 4 5 7 10 7 5 0 8 -46 8 -102z m194 -841 c5 -114 -31 -250 -75 -287 -16
-13 -21 -10 -54 30 -21 24 -47 60 -59 81 l-23 37 48 49 c26 27 69 76 97 110
44 56 51 60 57 42 5 -11 9 -39 9 -62z m2197 -140 c22 -48 19 -56 -18 -55 -17
0 -93 -9 -127 -16 -29 -6 -29 -3 8 50 27 40 51 89 74 149 6 17 10 11 25 -30 9
-27 27 -72 38 -98z m-4172 -2939 c81 -97 109 -137 102 -143 -5 -5 -40 2 -143
31 -11 3 -33 8 -48 11 -24 5 -28 9 -22 27 3 11 8 32 10 46 12 64 24 100 33
100 4 0 35 -33 68 -72z m4651 -595 c17 -27 52 -80 77 -120 26 -40 59 -85 75
-100 l28 -28 -19 -65 c-10 -36 -21 -72 -23 -80 -3 -8 -14 -46 -25 -85 -26 -89
-24 -168 7 -265 53 -169 153 -320 235 -354 33 -14 39 -32 62 -171 6 -32 46
-178 57 -207 6 -14 22 -36 35 -49 29 -28 48 -16 46 31 0 16 2 30 5 30 15 0 43
-35 43 -52 0 -28 18 -58 35 -58 9 0 16 -10 16 -22 1 -13 2 -42 3 -65 2 -38 -7
-140 -18 -188 -11 -53 -52 -161 -101 -265 -66 -141 -79 -204 -60 -288 5 -23 3
-32 -7 -33 -7 0 -26 -2 -43 -4 -16 -1 -68 -6 -115 -9 -47 -4 -105 -9 -130 -11
-25 -2 -81 -7 -126 -10 -169 -14 -209 -17 -324 -30 -25 -3 -70 -7 -100 -10
-30 -3 -75 -8 -100 -12 -73 -9 -230 -11 -235 -3 -3 4 37 58 88 119 63 76 109
143 142 208 27 53 72 131 100 172 66 97 74 111 90 174 38 145 39 300 4 457
-15 64 -13 79 10 100 40 34 49 167 17 257 -14 39 -14 144 -1 268 10 85 13 125
14 162 1 25 14 45 61 93 66 67 111 150 133 248 17 74 22 238 8 274 -8 21 -6
38 4 38 1 0 15 -21 32 -47z m-5429 -742 c9 -5 35 -14 57 -20 22 -7 49 -16 60
-21 11 -5 37 -16 57 -24 64 -25 295 -163 503 -300 110 -73 228 -150 262 -171
35 -22 63 -43 63 -47 0 -5 4 -8 10 -8 5 0 52 -28 104 -62 52 -35 114 -75 138
-90 49 -32 67 -43 123 -78 22 -14 47 -29 55 -33 8 -4 89 -51 179 -105 l164
-97 3 -45 c1 -25 5 -59 8 -76 3 -17 8 -48 11 -70 2 -21 7 -50 10 -64 2 -14 7
-41 10 -60 29 -175 64 -289 101 -322 25 -22 123 -67 269 -123 131 -50 153 -59
204 -84 19 -9 37 -16 40 -17 8 -1 40 -13 78 -30 17 -8 45 -14 62 -14 48 0 37
-20 -11 -21 -24 -1 -47 0 -53 1 -12 3 -16 3 -70 -4 -22 -3 -67 -7 -100 -10
-33 -3 -87 -9 -120 -12 -33 -4 -73 -8 -90 -9 -16 -2 -52 -5 -80 -9 -27 -3 -79
-8 -115 -11 -36 -3 -87 -8 -115 -10 -27 -3 -99 -8 -160 -10 -60 -2 -126 -7
-145 -9 -19 -3 -57 -7 -84 -10 -27 -3 -90 -12 -140 -20 -50 -8 -113 -18 -141
-22 -27 -3 -57 -7 -65 -9 -8 -1 -40 -6 -70 -10 -30 -3 -68 -9 -85 -11 -16 -3
-46 -7 -65 -9 -19 -2 -116 -15 -215 -30 -247 -35 -234 -33 -290 -40 -27 -4
-61 -8 -75 -10 -59 -9 -229 -29 -338 -40 -29 -3 -67 -7 -85 -10 -18 -3 -52 -7
-77 -10 -25 -2 -56 -6 -70 -8 -14 -2 -50 -8 -80 -12 -30 -4 -64 -9 -75 -11
-11 -2 -40 -7 -64 -10 -25 -3 -47 -7 -51 -9 -3 -2 -26 -6 -50 -10 -25 -3 -56
-8 -70 -10 -14 -2 -45 -7 -70 -10 -25 -3 -62 -8 -82 -10 -21 -3 -50 -7 -65 -9
-80 -11 -130 -18 -146 -23 -14 -4 -17 0 -13 19 3 13 8 50 11 83 7 77 12 106
45 230 37 143 53 177 166 346 13 19 24 40 24 47 0 18 66 32 103 21 44 -12 55
-11 35 5 -9 7 -43 14 -75 15 -32 1 -59 4 -61 5 -3 4 -9 28 -23 95 -12 59 -48
136 -92 198 -37 51 -45 73 -27 73 6 0 10 5 10 10 0 21 47 110 133 255 165 275
427 623 688 916 35 40 70 80 77 90 15 22 16 22 40 10z m-1558 -613 c-1 -17
-38 -98 -92 -205 -38 -72 -68 -136 -68 -142 0 -6 10 -11 22 -11 40 0 5 -16
-130 -60 -155 -49 -316 -127 -354 -172 -15 -18 -33 -48 -39 -67 -37 -113 -91
-184 -150 -197 -13 -3 -35 -8 -49 -11 -14 -3 -38 -7 -55 -8 -58 -3 -64 -5 -92
-29 -23 -19 -40 -24 -88 -24 -111 0 -192 -22 -196 -52 -1 -6 -2 -14 -3 -20 -3
-24 -52 -6 -59 22 -5 19 -11 20 -64 15 -76 -8 -342 -20 -463 -21 -144 -1 -155
10 -40 44 121 35 154 49 445 191 132 64 321 156 420 204 99 48 232 112 295
142 350 166 676 341 728 390 12 11 32 18 32 11z"/>
<path d="M11600 12580 c-9 -6 -10 -10 -3 -10 6 0 15 5 18 10 8 12 4 12 -15 0z"/>
<path d="M21735 9507 c-16 -7 -32 -14 -35 -17 -3 -3 -10 -6 -16 -7 -16 -3
-113 -49 -149 -71 -16 -10 -65 -37 -107 -61 -43 -23 -78 -45 -78 -47 0 -23
194 59 325 137 17 10 44 25 60 32 36 17 66 48 44 46 -8 -1 -27 -6 -44 -12z"/>
<path d="M21260 9414 c-41 -25 -79 -50 -85 -55 -14 -15 147 71 165 87 28 27
-6 13 -80 -32z"/>
<path d="M22070 9326 c-67 -33 -320 -178 -339 -193 -2 -1 -2 -5 1 -8 2 -3 26
9 51 25 26 16 73 43 105 58 31 16 104 53 162 81 108 54 148 81 120 81 -8 -1
-53 -20 -100 -44z"/>
<path d="M21140 9335 c-11 -13 -10 -14 4 -9 9 3 16 10 16 15 0 13 -6 11 -20
-6z"/>
<path d="M19780 9219 c0 -5 5 -7 10 -4 6 3 10 8 10 11 0 2 -4 4 -10 4 -5 0
-10 -5 -10 -11z"/>
<path d="M19515 9160 c-316 -80 -369 -97 -270 -86 28 3 95 19 149 36 54 16
108 32 120 34 43 9 221 58 225 62 11 11 -50 -2 -224 -46z"/>
<path d="M20436 9173 c-6 -14 -5 -15 5 -6 7 7 10 15 7 18 -3 3 -9 -2 -12 -12z"/>
<path d="M20308 9173 c7 -3 16 -2 19 1 4 3 -2 6 -13 5 -11 0 -14 -3 -6 -6z"/>
<path d="M20365 9171 c3 -3 17 -6 31 -7 13 0 22 2 19 5 -3 3 -17 6 -31 7 -13
0 -22 -2 -19 -5z"/>
<path d="M22136 9141 c-3 -5 -50 -34 -104 -65 -54 -31 -113 -69 -130 -85 -18
-15 -48 -36 -67 -47 -19 -10 -35 -22 -35 -27 0 -11 69 30 138 81 31 24 92 64
135 89 42 26 77 50 77 55 0 11 -7 10 -14 -1z"/>
<path d="M21694 9109 c-19 -22 -19 -22 4 -8 12 8 22 17 22 21 0 12 -6 9 -26
-13z"/>
<path d="M21629 9073 c-12 -16 -12 -17 1 -7 8 6 22 14 30 17 13 5 12 6 -1 6
-9 1 -23 -7 -30 -16z"/>
<path d="M19165 9060 c-3 -6 1 -7 9 -4 18 7 21 14 7 14 -6 0 -13 -4 -16 -10z"/>
<path d="M18199 8968 c-12 -24 -30 -55 -40 -70 -13 -18 -16 -29 -9 -33 13 -8
11 -10 32 35 32 71 48 110 43 110 -3 0 -14 -19 -26 -42z"/>
<path d="M18074 8806 c-20 -25 -46 -60 -57 -78 l-19 -33 22 25 c52 60 60 71
60 80 0 6 3 10 8 10 4 0 13 9 20 20 21 34 5 22 -34 -24z"/>
<path d="M17924 8761 c-26 -29 -92 -140 -98 -166 -2 -5 -10 -26 -19 -45 -14
-31 -14 -35 2 -46 12 -10 17 -10 20 -1 2 7 9 15 15 19 7 5 4 8 -6 8 -22 0 -23
17 -1 61 20 42 86 141 108 163 9 9 15 22 13 28 -3 7 -17 -2 -34 -21z"/>
<path d="M17170 7759 c0 -5 5 -7 10 -4 6 3 10 8 10 11 0 2 -4 4 -10 4 -5 0
-10 -5 -10 -11z"/>
<path d="M17215 7220 c3 -5 8 -10 11 -10 2 0 4 5 4 10 0 6 -5 10 -11 10 -5 0
-7 -4 -4 -10z"/>
<path d="M17227 7170 c3 -11 10 -23 16 -27 7 -4 8 0 4 11 -4 10 -7 22 -7 27 0
5 -4 9 -9 9 -5 0 -7 -9 -4 -20z"/>
<path d="M17244 7113 c3 -10 12 -46 21 -81 62 -246 178 -429 329 -517 36 -21
153 -72 171 -74 3 -1 6 -1 8 -2 20 -7 60 -8 53 -2 -4 4 -11 8 -14 9 -65 8
-238 94 -293 146 -65 60 -100 110 -149 208 -60 120 -94 213 -107 293 -3 20
-10 37 -15 37 -5 0 -7 -8 -4 -17z"/>
<path d="M22081 7094 c-19 -8 -32 -17 -28 -20 3 -3 22 4 44 15 44 23 34 27
-16 5z"/>
<path d="M19835 6340 c3 -5 8 -10 11 -10 2 0 4 5 4 10 0 6 -5 10 -11 10 -5 0
-7 -4 -4 -10z"/>
<path d="M19868 6338 c5 -5 16 -8 23 -6 8 3 3 7 -10 11 -17 4 -21 3 -13 -5z"/>
<path d="M19948 6323 c6 -2 18 -2 25 0 6 3 1 5 -13 5 -14 0 -19 -2 -12 -5z"/>
<path d="M20056 6310 c13 -12 85 -20 78 -8 -3 5 -8 7 -11 5 -2 -3 -20 -1 -40
3 -19 5 -32 5 -27 0z"/>
<path d="M20186 6292 c-3 -5 1 -9 9 -9 8 0 12 4 9 9 -3 4 -7 8 -9 8 -2 0 -6
-4 -9 -8z"/>
<path d="M3180 6283 c0 -5 9 -14 20 -21 11 -7 20 -8 20 -2 0 5 -9 14 -20 20
-11 6 -20 7 -20 3z"/>
<path d="M20225 6280 c3 -5 8 -10 11 -10 2 0 4 5 4 10 0 6 -5 10 -11 10 -5 0
-7 -4 -4 -10z"/>
<path d="M20283 6273 c9 -2 25 -2 35 0 9 3 1 5 -18 5 -19 0 -27 -2 -17 -5z"/>
<path d="M20346 6258 c3 -5 10 -6 15 -3 13 9 11 12 -6 12 -8 0 -12 -4 -9 -9z"/>
<path d="M21308 6263 c7 -3 16 -2 19 1 4 3 -2 6 -13 5 -11 0 -14 -3 -6 -6z"/>
</g>
</svg>
